<svg width="205" height="214" viewBox="0 0 205 214" fill="none" xmlns="http://www.w3.org/2000/svg">
<path d="M149.167 14.6199C154.173 17.0158 170.227 22.0738 179.52 55.6516C184.96 92.1756 186.679 101.919 188.36 109.958C190.041 117.998 190.626 130.545 200.259 147.494C209.892 164.442 201.864 173.494 201.864 173.494L187.453 186.059C187.453 186.059 193.969 163.608 182.486 153.883C182.486 153.883 186.263 178.729 182.486 184.053C178.708 189.377 165.959 196.334 165.959 196.334C165.959 196.334 161.275 188.295 156.401 179.226C151.528 170.157 161.652 198.748 156.553 200.682C151.453 202.617 121.006 211.774 98.756 207.533C76.5062 203.291 58.0906 198.659 53.4253 197.257C53.4253 197.257 58.6195 194.826 54.8797 183.734C51.1399 172.642 52.9909 170.264 52.0087 171.311C51.0266 172.358 48.0423 176.635 50.12 184.603C50.7555 186.84 50.755 189.195 50.1186 191.431C49.4821 193.667 48.2321 195.706 46.4935 197.346C46.4935 197.346 33.0643 189.093 22.3738 188.1C16.3003 187.58 10.2924 186.522 4.43042 184.941C4.43042 184.941 -5.01347 164.655 3.67491 143.128C12.3633 121.601 17.6519 119.205 18.2563 92.1756C18.8607 65.1464 22.8082 30.6635 56.8062 12.3128C90.8042 -6.03792 128.844 -2.71918 149.167 14.6199Z" fill="url(#paint0_linear_302_2)"/>
<path d="M107.819 202.802C50.3773 202.802 59.5353 177.048 59.5353 213H107.8L155.399 211.622C155.304 175.703 165.242 202.802 107.819 202.802Z" fill="white" stroke="#404040" stroke-width="0.5" stroke-linecap="round" stroke-linejoin="round"/>
<path d="M89 188C58.4927 189.15 33 200.188 33 213H89V188Z" fill="#D74669"/>
<path d="M89 177H124V204.302C124 204.302 104.038 214.872 89 204.302V177Z" fill="#EDE3D1"/>
<path d="M124 188C154.433 189.15 180 200.189 180 213H124V188Z" fill="#D74669"/>
<path d="M89.0854 151.611H123.858V177.008C123.858 177.008 104.026 186.84 89.0854 177.008V151.611Z" fill="#EFCEB9"/>
<path d="M28.0779 121.05C28.1144 122.982 28.5594 124.888 29.387 126.657C30.2149 128.426 31.4086 130.022 32.8992 131.353C34.3897 132.684 36.1472 133.724 38.0692 134.411C39.9912 135.097 42.0394 135.419 44.0948 135.355C48.2476 135.426 52.2633 133.958 55.272 131.268C58.2806 128.577 60.0398 124.88 60.1683 120.979C60.142 119.037 59.7025 117.119 58.8756 115.338C58.0489 113.558 56.8514 111.95 55.3538 110.611C53.8561 109.271 52.0885 108.227 50.1549 107.539C48.2214 106.851 46.1609 106.533 44.0948 106.604C39.9389 106.547 35.9266 108.031 32.9279 110.736C29.9295 113.44 28.1869 117.146 28.0779 121.05Z" fill="#EDE3D1"/>
<path d="M37.5596 119.879C40.1881 119.82 42.8142 120.064 45.3792 120.607C47.4002 121.157 49.0434 122.381 51.0455 122.932C51.1847 122.963 51.3303 122.955 51.4648 122.909C51.5993 122.864 51.7168 122.782 51.8029 122.675C51.889 122.568 51.94 122.439 51.9498 122.305C51.9595 122.171 51.9276 122.037 51.8577 121.92C49.6856 117.696 41.4883 118.619 37.5407 118.956C37.4104 118.956 37.2856 119.005 37.1934 119.091C37.1014 119.178 37.0497 119.295 37.0497 119.418C37.0497 119.54 37.1014 119.657 37.1934 119.744C37.2856 119.831 37.4104 119.879 37.5407 119.879H37.5596Z" fill="#B5AA9A"/>
<path d="M180.786 121.228C180.752 123.143 180.315 125.034 179.501 126.791C178.687 128.548 177.512 130.137 176.043 131.464C174.573 132.794 172.84 133.837 170.941 134.535C169.043 135.234 167.015 135.573 164.977 135.532C160.823 135.608 156.804 134.143 153.793 131.45C150.784 128.758 149.026 125.059 148.903 121.157C148.939 119.234 149.381 117.337 150.203 115.576C151.022 113.814 152.207 112.223 153.684 110.893C155.162 109.563 156.908 108.521 158.815 107.828C160.725 107.135 162.761 106.803 164.807 106.853C168.945 106.799 172.94 108.277 175.928 110.966C178.918 113.655 180.663 117.341 180.786 121.228Z" fill="#EDE3D1"/>
<path d="M171.776 119.027C167.81 118.69 159.631 117.749 157.44 121.991C157.368 122.11 157.335 122.246 157.346 122.382C157.355 122.519 157.408 122.649 157.497 122.757C157.586 122.865 157.707 122.946 157.844 122.99C157.982 123.034 158.132 123.038 158.271 123.003C160.292 122.541 161.898 121.228 163.938 120.678C166.51 120.143 169.141 119.898 171.776 119.95C171.906 119.95 172.031 119.902 172.124 119.815C172.216 119.728 172.267 119.611 172.267 119.489C172.267 119.366 172.216 119.249 172.124 119.162C172.031 119.076 171.906 119.027 171.776 119.027Z" fill="#B5AA9A"/>
<path d="M97.1127 162.934H114.829C142.035 162.934 164.089 142.212 164.089 116.649V66.3711C164.089 40.8086 142.035 20.0862 114.829 20.0862H97.1127C69.9076 20.0862 47.8534 40.8086 47.8534 66.3711V116.649C47.8534 142.212 69.9076 162.934 97.1127 162.934Z" fill="#EDE3D1"/>
<path d="M136.135 74.6591C133.832 73.39 131.245 72.6484 128.58 72.494C125.852 72.4546 123.151 72.9818 120.666 74.038" stroke="#B5AA9A" stroke-width="1.04" stroke-linecap="round" stroke-linejoin="round"/>
<path d="M91.5408 75.3868C89.2071 74.2165 86.6276 73.5439 83.9857 73.4168C81.2714 73.3554 78.5721 73.8144 76.0528 74.7656" stroke="#B5AA9A" stroke-width="1.04" stroke-linecap="round" stroke-linejoin="round"/>
<path d="M91.3142 125.274C91.3142 125.274 104.649 133.474 117.757 128.096" stroke="#B5AA9A" stroke-width="1.04" stroke-linecap="round" stroke-linejoin="round"/>
<path d="M77.1106 89.5135C76.9783 93.2049 79.4715 96.2575 82.6635 96.3462C85.8556 96.4349 88.5188 93.5244 88.6321 89.833C88.7454 86.1415 86.2711 83.089 83.0791 83.0002C79.887 82.9115 77.2239 85.8221 77.1106 89.5135Z" fill="#2B343B"/>
<path d="M122.8 89.5135C122.668 93.205 125.161 96.2575 128.353 96.3462C131.545 96.435 134.208 93.5244 134.322 89.833C134.435 86.1415 131.961 83.089 128.769 83.0003C125.577 82.9115 122.913 85.8221 122.8 89.5135Z" fill="#2B343B"/>
<path d="M101.495 108.61C101.495 108.61 107.331 111.36 112.412 108.61" stroke="#E0D5C1" stroke-linecap="round" stroke-linejoin="round"/>
<path fill-rule="evenodd" clip-rule="evenodd" d="M77.9039 108.681C76.7529 108.468 75.7173 107.884 74.9763 107.03C74.3131 106.266 73.8402 105.372 73.592 104.414C73.3436 103.456 73.3261 102.458 73.5408 101.493C73.8438 100.406 74.5048 99.4369 75.4296 98.7244C76.1794 98.1714 77.1238 97.9052 78.0739 97.979C79.3212 98.1731 80.4637 98.7538 81.3194 99.6286C82.1752 100.503 82.6948 101.622 82.7958 102.806C82.8141 102.93 82.8141 103.055 82.7958 103.179C82.9475 103.705 83.0174 104.249 83.0036 104.794C83.0674 105.722 82.7598 106.638 82.1414 107.364C81.5228 108.09 80.6379 108.572 79.6605 108.716C79.0797 108.83 78.479 108.817 77.9039 108.681ZM76.8462 104.829V104.741C76.8462 104.741 76.7706 104.829 76.8462 104.829Z" fill="#EFCEB9"/>
<path fill-rule="evenodd" clip-rule="evenodd" d="M132.735 108.716C131.762 108.576 130.88 108.1 130.263 107.381C129.643 106.662 129.333 105.752 129.392 104.829C129.381 104.286 129.445 103.743 129.581 103.214V102.842C129.683 101.655 130.206 100.534 131.065 99.6593C131.925 98.7842 133.071 98.2051 134.322 98.0145C135.272 97.9405 136.216 98.2069 136.966 98.7599C137.891 99.4723 138.553 100.441 138.855 101.528C139.07 102.494 139.051 103.492 138.804 104.45C138.554 105.408 138.082 106.301 137.419 107.066C136.679 107.92 135.642 108.504 134.492 108.716C133.914 108.841 133.313 108.841 132.735 108.716ZM135.625 104.812V104.9C135.625 104.989 135.719 104.829 135.625 104.829V104.812Z" fill="#EFCEB9"/>
<path d="M161.388 36.6976C152.171 26.3687 130.979 14.3183 125.936 14.0343C120.892 13.7504 101.381 10.7156 86.9322 14.0343C72.4831 17.3531 56.7118 22.0383 51.4799 28.6936C46.248 35.3488 39.8261 60.6387 42.4704 72.0147C42.4704 72.0147 48.1367 66.5308 62.227 61.8455C62.227 61.8455 63.6247 50.6115 64.9658 49.1029C64.4601 53.0671 64.3969 57.0702 64.7769 61.0469C69.8562 59.5201 75.0445 58.3338 80.3026 57.4974C79.8981 52.698 80.0563 47.8713 80.7748 43.1044C80.8134 47.8518 81.1539 52.5929 81.7948 57.3022C85.5723 56.7343 89.6899 56.2551 94.1096 55.9179C94.1096 55.9179 94.4496 50.9132 95.2617 46.1569C95.2617 46.1569 95.7906 52.0667 96.395 55.7759C99.757 55.563 103.27 55.4387 107.01 55.4032C112.757 55.3487 118.503 55.6153 124.217 56.2019C124.122 52.3862 124.217 44.0982 123.801 43.1399C123.386 42.1815 125.822 46.7958 126.71 56.4858C132.372 57.1559 137.959 58.2962 143.407 59.8933C143.841 55.6872 144.181 49.3691 142.84 45.9084C142.84 45.9084 146.806 54.7821 146.429 60.8516C162.219 66.1758 167.319 73.7184 167.319 73.7184C167.319 73.7184 170.643 47.0265 161.388 36.6976Z" fill="#77655A"/>
<defs>
<linearGradient id="paint0_linear_302_2" x1="102.534" y1="208.598" x2="102.534" y2="-0.0038458" gradientUnits="userSpaceOnUse">
<stop offset="1" stop-color="#77655A"/>
</linearGradient>
</defs>
</svg>
