
<svg version="1.0" xmlns="http://www.w3.org/2000/svg"
 width="612.000000pt" height="612.000000pt" viewBox="0 0 612.000000 612.000000"
 preserveAspectRatio="xMidYMid meet">

<g transform="translate(0.000000,612.000000) scale(0.100000,-0.100000)"
fill="#000000" stroke="none">
<path d="M3410 5287 c-3 -3 -49 -10 -104 -17 -82 -10 -105 -16 -139 -41 -22
-16 -44 -29 -49 -29 -16 0 -136 -111 -163 -150 -43 -62 -125 -303 -136 -404
-11 -93 -8 -111 15 -80 20 27 31 10 17 -25 -9 -21 -10 -35 -2 -49 6 -12 12
-33 12 -49 1 -15 5 4 10 44 10 86 32 143 58 150 11 3 17 11 14 21 -2 10 5 27
16 39 11 12 37 56 56 97 20 42 46 83 60 92 14 9 25 22 25 28 0 17 58 70 97 90
58 29 183 10 183 -28 0 -19 -20 -31 -42 -28 -13 2 -18 -4 -19 -22 -2 -38 -3
-44 -11 -51 -4 -4 2 -22 13 -41 l19 -35 -22 -30 -23 -30 -75 8 c-158 17 -195
5 -236 -77 -16 -33 -20 -49 -13 -62 6 -10 15 -16 20 -12 6 3 27 -9 47 -28 21
-19 50 -42 65 -52 28 -17 117 -29 117 -15 0 4 7 10 16 13 11 4 15 2 11 -8 -4
-10 -1 -13 8 -10 7 3 15 -2 17 -12 3 -15 10 -12 45 19 l41 38 7 -54 c8 -59 1
-79 -37 -115 -24 -22 -26 -22 -68 -7 -24 9 -50 13 -57 11 -18 -7 -17 33 1 53
24 26 5 37 -61 33 -58 -4 -63 -6 -81 -37 -11 -18 -34 -41 -50 -50 -35 -21 -46
-69 -34 -150 6 -45 10 -50 35 -53 18 -2 27 1 27 11 0 23 43 57 60 47 22 -14
40 -12 40 5 0 10 9 15 28 14 38 -1 135 -34 140 -47 5 -17 -37 -15 -88 3 -56
20 -67 19 -46 -4 11 -12 14 -21 7 -26 -20 -12 -13 -87 11 -112 15 -16 19 -27
12 -31 -6 -4 -16 -17 -23 -29 -14 -27 -66 -31 -109 -9 -26 14 -28 13 -27 -7 0
-12 12 -44 27 -72 20 -39 23 -54 15 -67 -8 -13 -8 -30 1 -64 10 -38 10 -50 -1
-63 -29 -36 -38 -66 -30 -105 l9 -39 67 -2 c61 -1 72 -4 127 -43 34 -23 73
-42 87 -42 37 0 190 83 250 135 49 43 77 59 56 33 -6 -7 -10 -20 -10 -29 1
-33 -65 -95 -166 -157 -32 -20 -36 -26 -25 -39 9 -11 23 -13 51 -9 29 5 44 2
57 -9 11 -10 44 -17 94 -20 73 -4 77 -4 106 25 28 27 37 30 98 30 86 -1 142
-14 162 -38 19 -24 55 -33 148 -35 40 -1 76 -7 80 -13 4 -6 17 -16 30 -23 18
-10 22 -19 20 -48 -3 -37 0 -40 55 -62 28 -11 29 -14 25 -68 -2 -39 1 -58 10
-60 6 -3 12 3 12 12 0 28 17 7 24 -29 4 -18 15 -41 26 -51 11 -10 20 -26 20
-37 0 -20 15 -24 25 -7 4 6 13 8 21 5 22 -8 17 9 -22 82 -20 37 -45 92 -55
124 -9 31 -28 73 -41 95 -13 21 -29 50 -37 64 -33 66 -105 142 -179 189 -42
27 -90 60 -107 73 -16 13 -59 38 -95 56 -131 66 -141 77 -154 165 -5 38 -39
86 -61 86 -6 0 -40 15 -75 33 -83 42 -86 57 -25 155 25 41 45 77 45 81 0 5 20
38 44 75 24 36 48 85 54 109 6 23 18 69 27 102 9 33 24 106 33 163 29 195 -14
378 -118 495 -71 80 -143 128 -199 132 -27 2 -69 6 -93 10 -24 4 -45 4 -48 2z
m-305 -596 c3 -5 -4 -12 -15 -16 -26 -8 -82 4 -74 16 7 12 81 12 89 0z m102
-350 c13 -11 24 -30 25 -43 3 -26 -22 -34 -78 -23 -42 7 -45 35 -8 64 32 25
33 25 61 2z m593 -492 c0 -14 -17 -10 -23 5 -4 10 -1 13 9 9 7 -3 14 -9 14
-14z m-50 -84 c7 -8 8 -15 2 -15 -5 0 -15 7 -22 15 -7 8 -8 15 -2 15 5 0 15
-7 22 -15z"/>
<path d="M2492 3770 c-12 -11 -29 -20 -40 -20 -10 0 -23 -5 -30 -12 -7 -7 -12
-9 -12 -5 0 3 -48 -19 -107 -49 -85 -43 -121 -69 -166 -117 -59 -63 -118 -155
-138 -218 -6 -19 -17 -48 -25 -65 -16 -37 -64 -221 -71 -277 -4 -30 0 -46 23
-79 24 -34 30 -38 33 -22 5 29 21 44 38 37 10 -4 14 -2 10 4 -10 16 3 43 19
43 8 0 14 9 14 20 0 10 4 29 9 42 5 13 12 35 15 51 5 18 13 27 26 27 23 0 24
4 9 32 -9 16 -7 24 10 42 12 13 24 43 27 70 7 51 25 67 55 48 21 -14 31 3 18
30 -11 20 -2 48 15 47 6 0 25 -9 41 -20 68 -43 100 -49 110 -20 3 11 12 25 21
32 12 10 17 8 28 -7 13 -17 17 -17 41 -4 25 13 28 13 44 -8 31 -42 189 -33
241 13 20 17 125 16 167 -1 18 -8 45 -14 60 -13 21 0 13 5 -34 23 -137 51
-229 136 -293 272 -22 46 -40 87 -40 93 0 33 -86 41 -118 11z"/>
<path d="M3352 3411 c-56 -22 -54 -37 6 -32 46 3 62 13 62 39 0 16 -16 15 -68
-7z"/>
<path d="M3679 3306 c-5 -6 -51 -13 -96 -15 -12 0 -31 -11 -43 -23 -16 -17
-23 -19 -32 -10 -16 16 -43 15 -58 -3 -18 -21 -29 -19 -40 9 -8 21 -14 24 -57
21 -41 -3 -50 -7 -63 -31 -14 -24 -22 -28 -70 -29 -35 -1 -64 4 -80 14 -17 10
-49 16 -98 16 -63 0 -75 -3 -90 -22 -22 -28 -80 -43 -164 -43 -56 0 -71 4 -91
23 -22 20 -32 22 -95 17 -50 -4 -76 -11 -92 -25 -16 -14 -37 -20 -77 -20 -48
-1 -56 2 -66 22 -13 30 -21 29 -49 -5 -13 -15 -41 -37 -62 -47 -65 -33 -75
-44 -69 -81 5 -28 2 -34 -12 -34 -12 0 -16 -6 -12 -20 5 -20 -31 -84 -61 -108
-12 -9 -13 -15 -4 -24 18 -18 15 -58 -4 -58 -12 0 -15 -6 -9 -22 3 -13 10 -40
14 -61 5 -21 15 -45 24 -55 9 -9 17 -21 19 -27 2 -5 6 -9 9 -8 3 1 3 -12 1
-29 -3 -22 -12 -33 -34 -40 -19 -7 -27 -15 -24 -25 3 -8 1 -23 -4 -33 -7 -13
-7 -21 1 -25 7 -5 4 -14 -7 -26 -14 -15 -15 -24 -6 -42 15 -30 25 -66 28 -101
1 -16 8 -32 15 -37 8 -5 10 -9 6 -9 -4 0 -2 -10 4 -22 7 -13 14 -37 16 -55 3
-27 1 -32 -14 -27 -17 5 -17 5 0 -6 12 -8 15 -16 8 -27 -9 -18 12 -107 31
-131 6 -7 12 -30 14 -51 2 -22 18 -63 36 -93 17 -29 52 -86 76 -127 l45 -74
-12 -121 c-7 -66 -15 -142 -18 -167 -4 -39 -2 -50 16 -68 17 -17 29 -21 51
-16 21 5 31 2 38 -11 6 -11 11 -13 16 -5 13 21 32 11 54 -28 12 -21 33 -46 46
-55 23 -15 25 -14 31 4 10 32 37 21 54 -21 11 -30 57 -44 80 -26 11 9 17 7 29
-11 16 -25 47 -29 55 -8 4 9 14 12 25 9 11 -2 41 3 67 12 45 15 52 15 101 -1
29 -9 60 -14 68 -11 8 3 20 -1 26 -9 18 -20 47 -17 53 6 4 17 11 19 57 13 49
-6 53 -4 75 23 22 28 24 28 43 11 19 -18 21 -18 47 -1 26 17 28 17 41 -1 8
-10 14 -25 14 -33 0 -11 7 -13 28 -7 15 3 44 9 64 12 34 5 39 9 48 44 6 23 17
39 25 39 8 0 15 -4 15 -10 0 -15 26 -12 40 5 7 8 20 15 29 15 9 0 35 13 57 30
22 16 60 34 85 39 24 6 52 19 61 31 9 11 39 27 67 36 28 8 56 21 64 28 7 7 27
17 44 20 16 4 54 30 84 58 78 74 118 100 146 95 28 -5 28 -5 4 74 -46 151 -46
188 -5 267 8 15 14 32 14 38 0 6 9 40 21 75 11 35 25 90 30 123 5 32 28 122
49 200 22 78 52 207 65 287 14 79 31 159 37 177 10 27 9 38 -6 66 -10 19 -27
36 -37 39 -13 4 -17 11 -13 24 4 14 4 15 -4 4 -12 -17 -35 -4 -28 16 4 10 2
13 -6 10 -9 -3 -13 7 -13 32 0 23 -4 35 -12 34 -7 -2 -10 4 -7 12 4 9 0 15
-10 15 -15 0 -21 -17 -17 -49 2 -7 -2 -10 -7 -7 -6 3 -13 0 -16 -6 -4 -7 -4
23 -2 67 5 76 4 81 -17 90 -12 6 -27 21 -34 35 l-13 25 0 -28 c0 -24 -3 -26
-19 -18 -10 6 -21 8 -23 5 -3 -3 -8 6 -12 20 -3 14 -16 28 -29 31 -12 4 -37
14 -54 22 -28 13 -41 13 -90 3 -77 -17 -166 -16 -206 3 -36 17 -110 31 -118
23z m-399 -393 c0 -13 4 -23 8 -23 5 0 16 -17 25 -37 13 -28 14 -33 3 -19 -12
15 -18 17 -30 7 -19 -16 -23 0 -30 109 l-6 85 15 -50 c8 -27 15 -60 15 -72z
m-331 47 c13 -33 28 -60 32 -60 5 0 6 20 3 44 -4 25 -3 53 0 63 7 16 9 16 20
-6 l13 -23 7 23 c7 24 8 24 17 -6 5 -16 10 -76 11 -131 l3 -102 -36 0 c-34 -1
-36 2 -54 49 -20 57 -32 54 -37 -9 -3 -46 -19 -57 -30 -20 -8 31 -10 167 -2
207 10 47 27 38 53 -29z m266 -62 c4 -66 15 -136 26 -168 10 -30 18 -50 19
-44 0 6 12 16 27 23 21 10 29 9 41 -2 12 -13 18 -13 43 2 24 14 32 14 50 3 18
-12 23 -12 30 0 5 7 9 20 9 28 0 8 4 21 9 29 8 12 15 9 39 -17 28 -29 36 -32
99 -34 37 -1 93 -1 123 0 30 1 66 2 79 2 12 0 36 8 52 17 22 13 32 15 37 6 12
-19 8 -76 -5 -80 -7 -3 -13 3 -13 12 0 15 -2 16 -16 4 -15 -12 -16 -11 -10 9
7 21 5 22 -21 16 -36 -9 -43 -13 -43 -25 0 -6 5 -7 10 -4 16 10 80 -43 74 -60
-4 -8 -11 -12 -16 -9 -26 16 -87 22 -162 14 -45 -4 -105 -4 -135 1 -45 7 -58
6 -72 -7 -16 -14 -18 -14 -24 7 -7 20 -9 21 -20 6 -10 -13 -26 -15 -98 -12
l-87 4 -8 -31 c-10 -40 -29 -47 -43 -15 -10 23 -14 24 -117 24 -66 0 -110 -4
-114 -10 -4 -7 -11 -7 -21 2 -10 8 -17 9 -22 1 -3 -5 -16 -10 -28 -10 -15 0
-36 -16 -60 -45 -21 -25 -43 -45 -50 -45 -6 0 -1 7 11 16 26 18 30 39 6 30 -9
-4 -22 -2 -28 3 -18 16 -160 35 -164 23 -1 -5 -11 -8 -21 -5 -48 13 -54 -165
-9 -257 28 -55 14 -71 -20 -22 -30 43 -47 120 -45 205 1 66 -1 78 -14 73 -8
-3 -21 -6 -29 -6 -8 0 -23 -9 -35 -21 -21 -21 -21 -21 -35 -1 -8 11 -28 23
-45 27 -37 8 -43 22 -31 66 6 27 14 35 38 39 21 4 30 11 32 30 l4 24 16 -22
c16 -20 22 -21 106 -13 49 5 97 6 106 4 10 -3 21 0 24 6 4 6 18 11 30 11 13 0
42 7 65 15 35 12 45 12 74 0 25 -10 73 -13 187 -11 188 3 191 5 179 112 -11
96 -11 206 0 200 5 -3 12 -56 16 -118z m114 57 c0 -16 -3 -36 -8 -44 -6 -10
-9 8 -9 50 0 64 16 59 17 -6z m-219 32 c0 -22 21 -89 27 -84 3 3 9 30 14 59 6
41 7 28 4 -57 -5 -157 -22 -188 -50 -93 -17 58 -21 203 -5 193 6 -3 10 -12 10
-18z m-410 -141 c-1 -6 -7 4 -15 23 -8 18 -15 38 -15 45 1 6 7 -4 15 -23 8
-18 15 -38 15 -45z m-99 -43 c12 -19 19 -36 16 -39 -2 -3 -19 19 -37 48 -18
29 -25 47 -16 39 8 -7 25 -29 37 -48z m895 -230 c-10 -10 -19 5 -10 18 6 11 8
11 12 0 2 -7 1 -15 -2 -18z m-445 -126 c-13 -13 -15 1 -4 30 7 17 8 17 11 -1
2 -10 -1 -23 -7 -29z m-336 -53 c0 -18 9 -36 23 -48 13 -10 21 -24 18 -32 -3
-7 6 -46 19 -85 14 -40 25 -78 25 -86 0 -28 -21 -11 -51 42 -33 59 -38 62 -58
43 -8 -8 -7 -3 2 12 16 25 20 110 5 110 -4 0 -8 18 -8 41 0 28 4 39 13 37 6
-3 12 -18 12 -34z m345 -9 c0 -14 -4 -25 -10 -25 -11 0 -14 33 -3 43 11 11 13
8 13 -18z m-75 -33 c14 -22 28 -31 48 -32 25 0 27 -3 27 -42 0 -61 31 -199 44
-195 6 2 14 19 17 38 5 29 7 30 8 7 2 -56 -21 -74 -52 -40 -15 16 -34 101 -39
171 -4 54 -24 48 -42 -11 -14 -48 -66 -119 -66 -90 0 7 4 12 10 12 27 0 35
175 9 206 -12 15 -12 17 1 12 8 -2 24 -19 35 -36z m-111 -58 c6 -29 10 -33 22
-24 12 10 14 8 15 -16 1 -37 -2 -214 -5 -277 l-2 -49 30 6 c17 3 62 9 99 12
44 5 70 12 73 21 15 48 14 48 33 16 34 -55 103 -51 116 7 8 38 25 38 47 0 21
-37 58 -40 82 -7 14 20 16 21 26 5 16 -26 43 -22 73 12 29 32 47 38 47 17 0
-28 58 -69 104 -74 37 -5 54 0 98 24 39 22 62 29 85 26 18 -3 31 -8 28 -12 -2
-4 5 -14 15 -21 19 -13 18 -15 -11 -27 -17 -7 -60 -13 -95 -13 -48 0 -68 -4
-82 -18 -15 -15 -20 -16 -31 -5 -8 9 -28 13 -54 11 -35 -3 -42 -7 -51 -35 -16
-45 -24 -50 -36 -19 -5 14 -21 32 -36 38 -22 10 -28 10 -40 -6 -7 -11 -15 -24
-17 -30 -3 -7 -11 -5 -24 7 -28 24 -37 22 -72 -20 -30 -37 -31 -37 -46 -18
-30 41 -37 46 -58 39 -31 -9 -57 -34 -57 -54 0 -30 -13 -30 -31 0 -19 30 -19
30 -111 30 -120 0 -138 -5 -145 -41 -6 -32 -23 -40 -23 -11 0 26 -29 50 -65
54 -24 2 -32 -2 -43 -24 -16 -34 -20 -34 -62 -3 -19 14 -35 25 -37 25 -2 0 -8
-11 -13 -25 -10 -27 -30 -34 -30 -11 0 19 -47 56 -71 56 -11 0 -19 4 -19 9 0
24 -34 43 -67 36 -25 -4 -35 -2 -39 10 -9 22 12 145 30 180 15 30 17 27 31
-45 8 -39 61 -100 87 -100 9 0 20 -5 24 -11 4 -8 9 -8 17 0 8 8 17 5 33 -10
25 -24 41 -19 54 17 12 31 34 31 48 -1 9 -19 19 -25 45 -25 39 0 57 15 57 47
0 29 14 29 34 1 20 -28 20 -18 1 52 -22 82 -18 329 5 315 4 -3 11 -21 14 -41z
m289 -82 c7 -9 6 -11 -7 -6 -9 3 -16 16 -15 28 0 14 2 16 6 6 3 -8 10 -21 16
-28z m956 -179 c-7 -13 -21 -29 -31 -34 -17 -9 -18 -7 -12 18 3 15 13 39 21
52 14 22 16 23 25 6 7 -12 6 -25 -3 -42z m-448 -44 c-23 -9 -30 2 -24 34 l6
28 17 -28 c15 -25 15 -29 1 -34z m389 -25 c0 -8 -4 -14 -8 -14 -5 0 -13 -12
-20 -27 -8 -20 -10 -21 -6 -5 3 12 2 22 -3 21 -4 -1 -23 4 -40 12 -42 17 -43
39 -3 39 19 0 33 6 37 17 6 14 9 13 25 -7 10 -12 18 -28 18 -36z"/>
<path d="M3237 2663 c-4 -3 -7 -11 -7 -17 0 -6 5 -5 12 2 6 6 9 14 7 17 -3 3
-9 2 -12 -2z"/>
<path d="M2290 1118 c-1 -75 -11 -161 -26 -219 -19 -76 -18 -86 11 -144 13
-27 25 -64 25 -82 0 -17 6 -38 13 -45 8 -7 17 -26 21 -42 4 -18 12 -26 21 -22
7 2 25 -4 38 -15 14 -10 34 -19 44 -19 10 0 28 -7 39 -15 19 -13 23 -12 45 12
13 14 40 35 59 48 19 12 60 47 90 77 57 57 105 88 138 88 11 0 36 11 56 25 20
14 45 25 54 25 22 0 82 37 82 50 0 5 9 10 21 10 11 0 35 10 52 23 18 13 69 41
114 63 46 21 83 44 83 50 0 23 -31 36 -107 43 -64 6 -87 4 -127 -11 -27 -9
-54 -22 -60 -28 -15 -15 -92 -12 -105 4 -13 15 -97 41 -121 38 -8 -2 -37 -3
-64 -2 -38 0 -54 -5 -70 -22 -12 -13 -21 -17 -24 -10 -2 7 -12 12 -22 12 -11
0 -20 10 -23 30 -7 34 -22 38 -48 14 -10 -9 -33 -17 -51 -17 -30 -2 -33 1 -36
31 -3 28 -6 31 -18 22 -17 -15 -44 -6 -44 16 0 15 -37 53 -52 54 -5 0 -8 -19
-8 -42z"/>
<path d="M2330 435 c0 -39 3 -40 73 -22 37 10 44 16 35 25 -7 7 -27 12 -44 12
-18 0 -36 5 -39 10 -13 21 -25 9 -25 -25z"/>
</g>
</svg>
